<svg width="453" height="73" viewBox="0 0 453 73" fill="none" xmlns="http://www.w3.org/2000/svg">
<path d="M31.736 72C30.776 72 30.264 71.552 30.2 70.656L29.144 63.456C29.144 63.328 29.08 63.2 28.952 63.072C28.824 62.944 28.664 62.88 28.472 62.88H20.024C19.832 62.88 19.672 62.944 19.544 63.072C19.416 63.2 19.352 63.328 19.352 63.456L18.392 70.656C18.328 71.552 17.816 72 16.856 72H1.784C0.76 72 0.344 71.488 0.536 70.464L14.168 6.048C14.36 5.216 14.904 4.8 15.8 4.8H33.272C34.168 4.8 34.712 5.216 34.904 6.048L48.536 70.464V70.848C48.536 71.616 48.088 72 47.192 72H31.736ZM21.464 48.48C21.464 48.864 21.624 49.056 21.944 49.056H26.456C26.904 49.056 27.064 48.864 26.936 48.48L24.344 31.2C24.28 30.944 24.184 30.816 24.056 30.816C23.928 30.816 23.832 30.944 23.768 31.2L21.464 48.48ZM72.317 23.52C72.317 23.072 72.445 22.72 72.701 22.464C72.957 22.208 73.309 22.08 73.757 22.08H88.925C89.373 22.08 89.725 22.208 89.981 22.464C90.237 22.72 90.365 23.072 90.365 23.52V70.56C90.365 71.008 90.237 71.36 89.981 71.616C89.725 71.872 89.373 72 88.925 72H73.757C73.309 72 72.957 71.872 72.701 71.616C72.445 71.36 72.317 71.008 72.317 70.56V70.176C72.317 69.92 72.253 69.76 72.125 69.696C71.997 69.632 71.837 69.696 71.645 69.888C70.685 71.04 69.533 71.808 68.189 72.192C66.909 72.576 65.405 72.768 63.677 72.768C59.837 72.768 56.605 71.584 53.981 69.216C51.357 66.848 50.045 63.168 50.045 58.176V23.52C50.045 23.072 50.173 22.72 50.429 22.464C50.685 22.208 51.037 22.08 51.485 22.08H66.653C67.101 22.08 67.453 22.208 67.709 22.464C67.965 22.72 68.093 23.072 68.093 23.52V54.24C68.093 56.288 68.765 57.312 70.109 57.312C71.581 57.312 72.317 56.288 72.317 54.24V23.52ZM120.789 33.12C120.789 33.568 120.661 33.92 120.405 34.176C120.149 34.432 119.797 34.56 119.349 34.56H115.317C114.933 34.56 114.741 34.752 114.741 35.136V53.568C114.741 54.72 114.997 55.52 115.509 55.968C116.021 56.352 116.757 56.512 117.717 56.448H117.909C118.357 56.448 118.709 56.576 118.965 56.832C119.221 57.088 119.349 57.44 119.349 57.888V70.56C119.349 71.008 119.221 71.36 118.965 71.616C118.709 71.872 118.357 72 117.909 72H113.301C107.989 72 104.021 71.264 101.397 69.792C98.7728 68.256 97.4608 65.28 97.4608 60.864V35.136C97.4608 34.752 97.2688 34.56 96.8848 34.56H94.2928C93.8448 34.56 93.4928 34.432 93.2368 34.176C92.9808 33.92 92.8528 33.568 92.8528 33.12V23.52C92.8528 23.072 92.9808 22.72 93.2368 22.464C93.4928 22.208 93.8448 22.08 94.2928 22.08H96.8848C97.2688 22.08 97.4608 21.888 97.4608 21.504V11.232C97.4608 10.784 97.5888 10.432 97.8448 10.176C98.1008 9.92 98.4528 9.792 98.9008 9.792H113.301C113.749 9.792 114.101 9.92 114.357 10.176C114.613 10.432 114.741 10.784 114.741 11.232V21.504C114.741 21.888 114.933 22.08 115.317 22.08H119.349C119.797 22.08 120.149 22.208 120.405 22.464C120.661 22.72 120.789 23.072 120.789 23.52V33.12ZM132.658 18.72C130.034 18.72 127.858 17.888 126.13 16.224C124.466 14.496 123.634 12.32 123.634 9.696C123.634 7.008 124.466 4.832 126.13 3.168C127.858 1.504 130.034 0.671997 132.658 0.671997C135.282 0.671997 137.426 1.504 139.09 3.168C140.818 4.832 141.682 7.008 141.682 9.696C141.682 12.256 140.818 14.4 139.09 16.128C137.426 17.856 135.282 18.72 132.658 18.72ZM125.266 72C124.818 72 124.466 71.872 124.21 71.616C123.954 71.36 123.826 71.008 123.826 70.56V23.52C123.826 23.072 123.954 22.72 124.21 22.464C124.466 22.208 124.818 22.08 125.266 22.08H140.434C140.882 22.08 141.234 22.208 141.49 22.464C141.746 22.72 141.874 23.072 141.874 23.52V70.56C141.874 71.008 141.746 71.36 141.49 71.616C141.234 71.872 140.882 72 140.434 72H125.266ZM146.923 72C146.475 72 146.123 71.872 145.867 71.616C145.611 71.36 145.483 71.008 145.483 70.56V6.23999C145.483 5.792 145.611 5.44 145.867 5.184C146.123 4.928 146.475 4.8 146.923 4.8H162.091C162.539 4.8 162.891 4.928 163.147 5.184C163.403 5.44 163.531 5.792 163.531 6.23999V70.56C163.531 71.008 163.403 71.36 163.147 71.616C162.891 71.872 162.539 72 162.091 72H146.923ZM176.158 18.72C173.534 18.72 171.358 17.888 169.63 16.224C167.966 14.496 167.134 12.32 167.134 9.696C167.134 7.008 167.966 4.832 169.63 3.168C171.358 1.504 173.534 0.671997 176.158 0.671997C178.782 0.671997 180.926 1.504 182.59 3.168C184.318 4.832 185.182 7.008 185.182 9.696C185.182 12.256 184.318 14.4 182.59 16.128C180.926 17.856 178.782 18.72 176.158 18.72ZM168.766 72C168.318 72 167.966 71.872 167.71 71.616C167.454 71.36 167.326 71.008 167.326 70.56V23.52C167.326 23.072 167.454 22.72 167.71 22.464C167.966 22.208 168.318 22.08 168.766 22.08H183.934C184.382 22.08 184.734 22.208 184.99 22.464C185.246 22.72 185.374 23.072 185.374 23.52V70.56C185.374 71.008 185.246 71.36 184.99 71.616C184.734 71.872 184.382 72 183.934 72H168.766ZM229.207 50.112C229.207 50.56 229.079 50.912 228.823 51.168C228.567 51.424 228.215 51.552 227.767 51.552H207.415C207.031 51.552 206.839 51.744 206.839 52.128V54.24C206.839 55.136 207.031 55.872 207.415 56.448C207.863 57.024 208.407 57.312 209.047 57.312C209.687 57.312 210.167 57.088 210.487 56.64C210.871 56.192 211.127 55.616 211.255 54.912C211.575 54.016 212.119 53.6 212.887 53.664L227.575 54.624C228.535 54.752 228.983 55.264 228.919 56.16C228.599 61.792 226.807 65.984 223.543 68.736C220.343 71.424 215.511 72.768 209.047 72.768C202.647 72.768 197.655 71.296 194.071 68.352C190.551 65.344 188.791 61.12 188.791 55.68V38.4C188.791 33.216 190.583 29.088 194.167 26.016C197.751 22.88 202.711 21.312 209.047 21.312C215.383 21.312 220.311 22.88 223.831 26.016C227.415 29.088 229.207 33.216 229.207 38.4V50.112ZM209.047 36.768C208.407 36.768 207.863 37.056 207.415 37.632C207.031 38.208 206.839 38.944 206.839 39.84V42.144C206.839 42.528 207.031 42.72 207.415 42.72H210.583C210.967 42.72 211.159 42.528 211.159 42.144V39.84C211.159 38.944 210.967 38.208 210.583 37.632C210.199 37.056 209.687 36.768 209.047 36.768ZM258.878 21.408C260.414 21.408 261.726 21.728 262.814 22.368C263.39 22.688 263.614 23.296 263.486 24.192L261.086 39.264C261.022 39.776 260.862 40.096 260.606 40.224C260.35 40.352 259.966 40.352 259.454 40.224C258.814 40.032 258.078 39.936 257.246 39.936C255.902 39.936 254.782 40.16 253.886 40.608C252.99 41.056 252.254 41.792 251.678 42.816C251.166 43.776 250.91 44.768 250.91 45.792V70.464C250.91 70.912 250.782 71.264 250.526 71.52C250.27 71.776 249.918 71.904 249.47 71.904H234.302C233.854 71.904 233.502 71.776 233.246 71.52C232.99 71.264 232.862 70.912 232.862 70.464V23.52C232.862 23.072 232.99 22.72 233.246 22.464C233.502 22.208 233.854 22.08 234.302 22.08H249.47C249.918 22.08 250.27 22.208 250.526 22.464C250.782 22.72 250.91 23.072 250.91 23.52V25.536C250.91 25.792 250.974 25.952 251.102 26.016C251.23 26.08 251.358 25.984 251.486 25.728C253.086 22.848 255.55 21.408 258.878 21.408ZM315.892 72C314.932 72 314.42 71.552 314.356 70.656L313.3 63.456C313.3 63.328 313.236 63.2 313.108 63.072C312.98 62.944 312.82 62.88 312.628 62.88H304.18C303.988 62.88 303.828 62.944 303.7 63.072C303.572 63.2 303.508 63.328 303.508 63.456L302.548 70.656C302.484 71.552 301.972 72 301.012 72H285.94C284.916 72 284.5 71.488 284.692 70.464L298.324 6.048C298.516 5.216 299.06 4.8 299.956 4.8H317.428C318.324 4.8 318.868 5.216 319.06 6.048L332.692 70.464V70.848C332.692 71.616 332.244 72 331.348 72H315.892ZM305.62 48.48C305.62 48.864 305.78 49.056 306.1 49.056H310.612C311.06 49.056 311.22 48.864 311.092 48.48L308.5 31.2C308.436 30.944 308.34 30.816 308.212 30.816C308.084 30.816 307.988 30.944 307.924 31.2L305.62 48.48ZM356.473 23.52C356.473 23.072 356.601 22.72 356.857 22.464C357.113 22.208 357.465 22.08 357.913 22.08H373.081C373.529 22.08 373.881 22.208 374.137 22.464C374.393 22.72 374.521 23.072 374.521 23.52V70.56C374.521 71.008 374.393 71.36 374.137 71.616C373.881 71.872 373.529 72 373.081 72H357.913C357.465 72 357.113 71.872 356.857 71.616C356.601 71.36 356.473 71.008 356.473 70.56V70.176C356.473 69.92 356.409 69.76 356.281 69.696C356.153 69.632 355.993 69.696 355.801 69.888C354.841 71.04 353.689 71.808 352.345 72.192C351.065 72.576 349.561 72.768 347.833 72.768C343.993 72.768 340.761 71.584 338.137 69.216C335.513 66.848 334.201 63.168 334.201 58.176V23.52C334.201 23.072 334.329 22.72 334.585 22.464C334.841 22.208 335.193 22.08 335.641 22.08H350.809C351.257 22.08 351.609 22.208 351.865 22.464C352.121 22.72 352.249 23.072 352.249 23.52V54.24C352.249 56.288 352.921 57.312 354.265 57.312C355.737 57.312 356.473 56.288 356.473 54.24V23.52ZM404.753 21.408C406.289 21.408 407.601 21.728 408.689 22.368C409.265 22.688 409.489 23.296 409.361 24.192L406.961 39.264C406.897 39.776 406.737 40.096 406.481 40.224C406.225 40.352 405.841 40.352 405.329 40.224C404.689 40.032 403.953 39.936 403.121 39.936C401.777 39.936 400.657 40.16 399.761 40.608C398.865 41.056 398.129 41.792 397.553 42.816C397.041 43.776 396.785 44.768 396.785 45.792V70.464C396.785 70.912 396.657 71.264 396.401 71.52C396.145 71.776 395.793 71.904 395.345 71.904H380.177C379.729 71.904 379.377 71.776 379.121 71.52C378.865 71.264 378.737 70.912 378.737 70.464V23.52C378.737 23.072 378.865 22.72 379.121 22.464C379.377 22.208 379.729 22.08 380.177 22.08H395.345C395.793 22.08 396.145 22.208 396.401 22.464C396.657 22.72 396.785 23.072 396.785 23.52V25.536C396.785 25.792 396.849 25.952 396.977 26.016C397.105 26.08 397.233 25.984 397.361 25.728C398.961 22.848 401.425 21.408 404.753 21.408ZM431.428 21.312C435.524 21.312 439.14 21.984 442.276 23.328C445.476 24.672 447.94 26.56 449.668 28.992C451.396 31.424 452.26 34.24 452.26 37.44V70.56C452.26 71.008 452.132 71.36 451.876 71.616C451.62 71.872 451.268 72 450.82 72H435.652C435.204 72 434.852 71.872 434.596 71.616C434.34 71.36 434.212 71.008 434.212 70.56V68.544C434.212 68.288 434.148 68.16 434.02 68.16C433.892 68.096 433.732 68.16 433.54 68.352C431.364 71.296 427.972 72.768 423.364 72.768C414.66 72.768 410.308 67.68 410.308 57.504C410.308 53.024 411.108 49.696 412.708 47.52C414.308 45.344 416.484 43.936 419.236 43.296C421.988 42.656 425.7 42.336 430.372 42.336H433.636C434.02 42.336 434.212 42.144 434.212 41.76V39.648C434.212 38.816 433.956 38.144 433.444 37.632C432.932 37.056 432.26 36.768 431.428 36.768C430.34 36.768 429.572 37.344 429.124 38.496C428.804 39.392 428.292 39.84 427.588 39.84L412.228 39.648C411.268 39.648 410.788 39.2 410.788 38.304C411.108 32.992 413.124 28.832 416.836 25.824C420.612 22.816 425.476 21.312 431.428 21.312ZM431.14 59.808C431.908 59.808 432.612 59.584 433.252 59.136C433.892 58.624 434.212 57.984 434.212 57.216V54.624C434.212 54.24 434.02 54.048 433.636 54.048H431.716C430.82 54.048 430.084 54.368 429.508 55.008C428.996 55.584 428.74 56.288 428.74 57.12C428.74 57.952 428.964 58.624 429.412 59.136C429.924 59.584 430.5 59.808 431.14 59.808Z" fill="black"/>
</svg>
